<?xml version="1.0" encoding="UTF-8"?>
<svg width="132px" height="150px" viewBox="0 0 132 150" version="1.1" xmlns="http://www.w3.org/2000/svg" xmlns:xlink="http://www.w3.org/1999/xlink">
    <!-- Generator: Sketch 47.1 (45422) - http://www.bohemiancoding.com/sketch -->
    <title>image-book</title>
    <desc>Created with Sketch.</desc>
    <defs>
        <linearGradient x1="0%" y1="0%" x2="101.999998%" y2="100.999999%" id="linearGradient-1">
            <stop stop-color="#8A20B2" offset="0%"></stop>
            <stop stop-color="#461686" offset="100%"></stop>
        </linearGradient>
        <linearGradient x1="0.499999523%" y1="101.499999%" x2="101.499999%" y2="-0.499999523%" id="linearGradient-2">
            <stop stop-color="#3006AA" offset="0%"></stop>
            <stop stop-color="#8614DD" offset="100%"></stop>
        </linearGradient>
        <path d="M1.81462559,10.8154553 L112.536564,0.508579916 L112.536564,0.508579916 C115.286101,0.252631265 117.722528,2.27408368 117.978476,5.02362027 C117.992818,5.1776827 118,5.3323278 118,5.48705629 L118,144.512944 L118,144.512944 C118,147.274367 115.761424,149.512944 113,149.512944 C112.845272,149.512944 112.690626,149.505761 112.536564,149.49142 L1.81462559,139.184545 L1.81462559,139.184545 C0.786321628,139.088822 -1.05529772e-14,138.225904 3.99680289e-15,137.193154 L0,12.8068458 L8.8817842e-16,12.8068458 C7.61703063e-16,11.7740962 0.786321628,10.911178 1.81462559,10.8154553 Z" id="path-3"></path>
        <linearGradient x1="0%" y1="14.211189%" x2="73.2992364%" y2="76.7362775%" id="linearGradient-5">
            <stop stop-color="#4899F7" offset="0%"></stop>
            <stop stop-color="#2457F5" offset="100%"></stop>
        </linearGradient>
        <linearGradient x1="0%" y1="0%" x2="106.565871%" y2="76.2020301%" id="linearGradient-6">
            <stop stop-color="#9DE1E5" offset="0%"></stop>
            <stop stop-color="#B8DFB2" offset="100%"></stop>
        </linearGradient>
    </defs>
    <g id="Page-1" stroke="none" stroke-width="1" fill="none" fill-rule="evenodd">
        <g id="image-book">
            <path d="M27.8142788,17.7167314 L126.535697,8.50962035 L126.535697,8.50962035 C129.285189,8.25319294 131.721968,10.2742211 131.978396,13.0237131 C131.992791,13.1780621 132,13.3329971 132,13.488016 L132,137.511984 L132,137.511984 C132,140.273408 129.761424,142.511984 127,142.511984 C126.844981,142.511984 126.690046,142.504775 126.535697,142.49038 L27.8142788,133.283269 L27.8142788,133.283269 C26.7861245,133.187379 26,132.324527 26,131.29191 L26,19.7080896 L26,19.7080896 C26,18.6754735 26.7861245,17.8126207 27.8142788,17.7167314 Z" id="Rectangle-6-Copy" fill="url(#linearGradient-1)"></path>
            <path d="M117.115059,6.80424733 L126.306516,9.76404532 L126.306516,9.76404532 C126.719811,9.89713311 127,10.2817157 127,10.7159108 L127,140.806905 L127,140.806905 C127,141.20733 126.761136,141.569147 126.392915,141.72648 L117.373186,145.580424 L117.115059,6.80424733 Z" id="Rectangle-6-Copy-2" fill="#E7DFF9"></path>
            <mask id="mask-4" fill="white">
                <use xlink:href="#path-3"></use>
            </mask>
            <use id="Rectangle-6" fill="url(#linearGradient-2)" xlink:href="#path-3"></use>
            <g id="Logo-Copy" opacity="0.900000036" mask="url(#mask-4)">
                <g transform="translate(-10.000000, -64.000000)">
                    <path d="M181.421356,40 L141.421356,5.68434189e-14 L2.84e-14,141.421356 L141.421356,282.842712 L181.421356,242.842712 L80,141.421356 L181.421356,40 Z" id="Combined-Shape" fill="url(#linearGradient-5)"></path>
                    <path d="M261.421356,40 L221.421356,5.68434189e-14 L80,141.421356 L221.421356,282.842712 L261.421356,242.842712 L160,141.421356 L261.421356,40 Z" id="Combined-Shape-Copy" fill="url(#linearGradient-6)"></path>
                </g>
            </g>
            <path d="M12.2135429,52.7710475 L18.3161199,52.5480294 C23.111793,52.3804782 25.9360346,55.2829186 25.9360346,60.6048443 C25.9360346,65.9267701 23.111793,69.0775408 18.3161199,69.1214212 L12.2135429,69.179828 L12.2135429,52.7710475 Z M15.558331,55.494647 L15.558331,66.2888303 L17.9174034,66.2556269 C20.9077769,66.2144574 22.5247937,64.2966569 22.5247937,60.689696 C22.5247937,57.1983429 20.8634751,55.3294861 17.9174034,55.4203096 L15.558331,55.494647 Z M33.1350819,58.6729816 C31.7174234,58.7047389 30.6984813,59.8626836 30.5877267,61.43253 L35.6270598,61.3389901 C35.5606071,59.7266965 34.5748914,58.6411596 33.1350819,58.6729816 Z M35.6713617,65.1074962 L38.6395842,65.0691216 C38.2851696,67.5557166 36.1586818,69.2382445 33.2236856,69.2608675 C29.5687846,69.2899278 27.3758441,66.8508757 27.3758441,62.8568582 C27.3758441,58.8744852 29.5909355,56.2299927 33.1018555,56.1382117 C36.5573983,56.050796 38.7392634,58.4924377 38.7392634,62.3478066 L38.7392634,63.400346 L30.5545003,63.5269631 L30.5545003,63.737513 C30.5545003,65.527187 31.6288197,66.7430448 33.2790629,66.7243134 C34.4641368,66.7110406 35.3723243,66.0769262 35.6713617,65.1074962 Z M40.2012237,59.9664697 C40.2012237,61.8384973 41.3530713,63.0772301 43.6013892,63.5915828 L45.7943297,64.0865025 C46.8575736,64.3475942 47.2562901,64.7011474 47.2562901,65.3464402 C47.2562901,66.1829308 46.5142345,66.7158952 45.2848587,66.7279014 C44.0001056,66.7406175 43.2137482,66.130072 43.0586917,65.0616185 L39.9021864,65.1005116 C40.0793937,67.5742041 42.0286742,69.1949047 45.196255,69.1725734 C48.3306095,69.1512047 50.4792482,67.4698399 50.4792482,64.939153 C50.4792482,63.0201488 49.5156834,62.0147305 47.1344601,61.4765974 L44.8639913,60.9884111 C43.8228983,60.7440974 43.3134273,60.3247163 43.3134273,59.6943335 C43.3134273,58.8736464 44.0444075,58.3117568 45.1630287,58.2893808 C46.3591781,58.2657468 47.1233846,58.8840508 47.1898374,59.9104155 L50.1691354,59.859042 C50.1248336,57.3660764 48.1866285,55.7778696 45.2073305,55.8446674 C42.1615797,55.9151791 40.2012237,57.5494214 40.2012237,59.9664697 Z M52.1405668,68.8498425 L55.3746004,68.8285041 L55.3746004,55.9028902 L52.1405668,55.9689057 L52.1405668,68.8498425 Z M53.7575836,54.5152391 C54.7322239,54.4939838 55.485355,53.6697817 55.485355,52.6568362 C55.485355,51.6318318 54.7322239,50.8550883 53.7575836,50.880115 C52.7829434,50.9054289 52.0298123,51.718133 52.0298123,52.7393522 C52.0298123,53.7485571 52.7829434,54.5367382 53.7575836,54.5152391 Z M63.0055905,66.0112558 C64.6226073,65.9976507 65.6526249,64.57632 65.6526249,62.2135061 C65.6526249,59.8628717 64.6226073,58.3683477 63.0055905,58.3934804 C61.4107247,58.4187971 60.4028581,59.9136014 60.4028581,62.2768339 C60.4028581,64.6521855 61.3996492,66.0250567 63.0055905,66.0112558 Z M62.9502133,73.6898478 C59.8269343,73.6938064 57.7115219,72.0407124 57.4567864,69.7335372 L60.6243672,69.7168402 C60.8791027,70.6127601 61.8094411,71.2277265 63.0388169,71.2232992 C64.711211,71.2173903 65.6415494,70.1910963 65.6415494,68.6808594 L65.6415494,66.3911453 L65.5750967,66.3916668 C65.0213238,67.7836866 63.6258162,68.7412515 61.9091203,68.7514432 C59.0073504,68.7691911 57.0912963,66.3413192 57.0912963,62.2948684 C57.0912963,58.1880228 58.9519731,55.6270475 61.9644975,55.5697684 C63.670118,55.5383099 65.0102483,56.5000415 65.6304739,57.9875792 L65.6858512,57.9867211 L65.6858512,55.7090945 L68.875583,55.6542895 L68.875583,68.5649321 C68.875583,71.6918237 66.5054351,73.6855351 62.9502133,73.6898478 Z M70.9799199,68.7368918 L74.2139534,68.7202588 L74.2139534,61.1748899 C74.2139534,59.4695138 75.1332164,58.2795155 76.5841013,58.2606374 C78.0349862,58.2421919 78.7659664,59.2180182 78.7659664,60.9416905 L78.7659664,68.6982159 L82,68.6835275 L82,60.15615 C82,57.058651 80.5158887,55.2283587 77.8799298,55.2666205 C76.0524794,55.2941333 74.8009527,56.2708619 74.1696516,57.9119695 L74.1031989,57.9128779 L74.1031989,55.569727 L70.9799199,55.6194643 L70.9799199,68.7368918 Z M19.2796847,98.0060294 C23.2003966,98.1455321 25.9360346,95.8696575 26.3126001,92.1375071 L23.0564157,92.0546153 C22.702001,94.0228757 21.273267,95.1928851 19.2907601,95.1306623 C16.7323295,95.0488305 15.1263882,92.8255567 15.1263882,89.306211 C15.1263882,85.8325711 16.7544804,83.6730283 19.2796847,83.7079614 C21.2289652,83.7344294 22.7352274,85.0960636 23.0453402,87.1486866 L26.3015247,87.2077378 C26.0467892,83.449332 23.1228684,80.8669125 19.2796847,80.8322438 C14.6501435,80.788982 11.7151473,83.9533532 11.7151473,89.2365584 C11.7151473,94.5311253 14.6279926,97.8345033 19.2796847,98.0060294 Z M33.5448738,98.4678503 C29.9564256,98.3516637 27.663806,95.8523648 27.663806,91.7518406 C27.663806,87.7095626 29.989652,85.2856453 33.5448738,85.3363323 C37.1000957,85.3853419 39.4259417,87.9021939 39.4259417,92.0213496 C39.4259417,96.1996885 37.133322,98.5801564 33.5448738,98.4678503 Z M33.5448738,95.8485941 C35.1286642,95.8930536 36.1365309,94.4948496 36.1365309,91.9607871 C36.1365309,89.4502973 35.1175888,87.983023 33.5448738,87.9555886 C31.9721589,87.9277427 30.9421413,89.3488201 30.9421413,91.8416776 C30.9421413,94.3579423 31.950008,95.803145 33.5448738,95.8485941 Z M45.4952924,98.755249 C42.5270698,98.6703666 40.6553175,96.1022105 40.6553175,92.0359316 C40.6553175,88.0052177 42.5381453,85.5283578 45.5174433,85.5662426 C47.2341392,85.5875336 48.5631941,86.585111 49.1391179,88.0178161 L49.2055706,88.0187968 L49.2055706,81.3717778 L52.4396042,81.3947052 L52.4396042,98.7391598 L49.2498724,98.6552145 L49.2498724,96.4514075 L49.1944952,96.4500616 C48.6185714,97.8483123 47.2452147,98.8040513 45.4952924,98.755249 Z M46.5917627,88.3737172 C44.9636704,88.3480269 43.9668793,89.7961995 43.9668793,92.1292726 C43.9668793,94.4742491 44.9636704,95.9395868 46.5917627,95.9798903 C48.197704,96.0189572 49.2277215,94.582471 49.2277215,92.2349964 C49.2277215,89.8994986 48.197704,88.3986192 46.5917627,88.3737172 Z M59.9266134,88.2765575 C58.5089548,88.2578167 57.4900128,89.4162782 57.3792582,91.0337062 L62.4185913,91.1136798 C62.3521386,89.4492014 61.3664228,88.2952512 59.9266134,88.2765575 Z M62.4628931,95.0002173 L65.4311157,95.0556982 C65.0767011,97.605527 62.9502133,99.2737491 60.015217,99.2050172 C56.3603161,99.1157973 54.1673755,96.5194494 54.1673755,92.3890081 C54.1673755,88.2706089 56.382467,85.6219319 59.893387,85.6596997 C63.3489297,85.6952744 65.5307948,88.2864996 65.5307948,92.2565603 L65.5307948,93.3404113 L57.3460318,93.1958593 L57.3460318,93.4133372 C57.3460318,95.2618996 58.4203512,96.5539987 60.0705943,96.5894583 C61.2556683,96.6144711 62.1638558,95.989973 62.4628931,95.0002173 Z" id="Design-Code" fill="#FFFFFF" mask="url(#mask-4)"></path>
        </g>
    </g>
</svg>