<?xml version="1.0" encoding="UTF-8"?>
<svg width="100px" height="37px" viewBox="0 0 100 37" version="1.1" xmlns="http://www.w3.org/2000/svg" xmlns:xlink="http://www.w3.org/1999/xlink">
    <!-- Generator: Sketch 47.1 (45422) - http://www.bohemiancoding.com/sketch -->
    <title>logo-google</title>
    <desc>Created with Sketch.</desc>
    <defs></defs>
    <g id="Page-1" stroke="none" stroke-width="1" fill="none" fill-rule="evenodd">
        <g id="logo-google" fill-rule="nonzero" fill="#FFFFFF">
            <path d="M15.456,18.0091797 L19.7506667,18.0091797 L19.7506667,24.1943359 C18.4106667,24.6359375 16.7186667,24.8779297 14.96,24.8779297 C7.832,24.8779297 3.64266667,18.6189453 3.64266667,12.50625 C3.64266667,6.51113281 7.432,2.30566406 12.7186667,2.30566406 C16.064,2.30566406 18.0106667,3.46777344 19.752,5.08652344 L19.752,7.10449219 L23.0173333,3.75625 C20.952,2.3234375 17.9613333,0.96171875 13.6866667,0.96171875 C4.30266667,0.96171875 0.0133333333,7.84550781 0.0133333333,13.5029297 C0.0133333333,21.5556641 5.73333333,26.4064453 12.9213333,26.4064453 C16.4066667,26.4064453 19.5013333,25.8609375 23.076,24.8410156 L23.076,18.4507813 C23.076,18.1240234 23.216,17.8998047 23.4253333,17.7029297 L24.5533333,16.5462891 L16.8933333,16.5462891 L15.456,18.0091797 Z" id="path4423"></path>
            <path d="M34.6946667,9.60371094 C29.2933333,9.60371094 25.9466667,13.6505859 25.9466667,17.9462891 C25.9466667,21.6541016 28.6426667,26.0564453 34.1053333,26.0564453 C39.36,26.0564453 42.584,22.0013672 42.584,17.6304687 C42.584,13.5589844 39.4333333,9.60507812 34.6946667,9.60507812 L34.6946667,9.60371094 Z M33.7986667,10.7835938 C37.6066667,10.7835938 39.3026667,15.8708984 39.3026667,19.4994141 C39.3026667,24.8957031 35.3546667,25.0023437 34.8826667,25.0023437 C33.076,25.0023437 31.8133333,23.8826172 30.868,22.4142578 C30.036,21.0607422 29.2226667,18.5464844 29.2226667,16.0896484 C29.2226667,13.6423828 30.004,12.4474609 31.2333333,11.5683594 C32.2386667,10.909375 33.18,10.7835938 33.7973333,10.7835938 L33.7986667,10.7835938 Z" id="path4425"></path>
            <path d="M70.0026667,9.60234375 C65.2853333,9.60234375 62.7333333,12.6648438 62.7333333,16.0841797 C62.7333333,18.6873047 64.552,21.6240234 68.304,21.6240234 L69.2533333,21.6240234 C69.2533333,21.6240234 68.9946667,22.2679688 68.9933333,22.8900391 C68.9933333,23.8074219 69.3146667,24.3228516 69.9973333,25.1158203 C63.5413333,25.5191406 60.9466667,28.1892578 60.9466667,31.0589844 C60.9466667,33.571875 63.2933333,36.0451172 68.2253333,36.0451172 C74.064,36.0451172 77.088,32.7214844 77.088,29.459375 C77.088,27.1597656 75.9706667,25.8992188 73.1413333,23.7253906 C72.3093333,23.0623047 72.148,22.6398438 72.148,22.1435547 C72.148,21.4326172 72.5626667,20.9623047 72.7146667,20.7845703 C72.9826667,20.4947266 73.4466667,20.1638672 73.62,20.0052734 C74.5706667,19.1794922 75.9133333,17.9572266 75.9133333,15.5181641 C75.9133333,13.8447266 75.2346667,12.4050781 73.688,11.0570313 L75.576,11.0570313 L76.9946667,9.60234375 L70.004,9.60234375 L70.0026667,9.60234375 Z M68.7013333,10.690625 C69.5573333,10.690625 70.272,11.0009766 71.0266667,11.6449219 C71.864,12.41875 73.2013333,14.4982422 73.2013333,17.0712891 C73.2013333,19.8480469 71.0973333,20.6082031 69.9586667,20.6082031 C69.4013333,20.6082031 68.7333333,20.4482422 68.168,20.0517578 C66.912,19.2164063 65.6653333,16.9933594 65.6653333,14.3478516 C65.6653333,11.9607422 67.052,10.690625 68.7013333,10.690625 L68.7013333,10.690625 Z M70.5693333,26.1699219 C70.9293333,26.1699219 71.188,26.2 71.188,26.2 C71.188,26.2 72.0373333,26.8220703 72.6306667,27.2869141 C74.012,28.4066406 74.8733333,29.2625 74.8733333,30.7869141 C74.8733333,32.8828125 72.9773333,34.5261719 69.9066667,34.5261719 C66.536,34.5261719 63.96,32.9169922 63.96,30.2892578 C63.96,28.1126953 65.7253333,26.2396484 70.5693333,26.1699219 L70.5693333,26.1699219 Z" id="path4429"></path>
            <path d="M78.016,25.5765625 L84.492,25.5765625 L85.4786667,24.5648438 L83.6213333,24.3269531 C83.1213333,24.2640625 82.824,23.8210938 82.824,23.3917969 L82.824,3.33378906 C82.824,2.93867188 83.0026667,2.73632813 83.1333333,2.6078125 L84.3013333,1.41015625 L78.7786667,1.41015625 L77.3413333,2.88398438 L79.488,2.88398438 L79.488,23.6611328 C79.488,23.9564453 79.3973333,24.1574219 79.2026667,24.3638672 L78.016,25.5765625 Z" id="path4433"></path>
            <path d="M93.2666667,9.60371094 C89.6506667,9.60371094 85.8093333,12.4296875 85.8093333,17.5033203 C85.8093333,21.69375 88.5653333,26.0564453 93.7146667,26.0564453 C94.9986667,26.0564453 96.056,25.8869141 97.0466667,25.4207031 C98.1093333,24.9189453 99.132,24.1041016 99.8786667,23.0800781 C98.4693333,23.8087891 97.32,24.2873047 95.7933333,24.2873047 C92.892,24.2873047 90.0946667,22.1408203 89.116,18.1951172 L99.3653333,13.9472656 C98.7733333,11.7830078 97.104,9.60371094 93.268,9.60371094 L93.2666667,9.60371094 Z M92.5973333,10.7644531 C94.5373333,10.7644531 95.94,12.4009766 95.94,13.6820312 C95.94,14.0962891 95.6866667,14.3150391 95.1853333,14.5173828 L88.8853333,17.1300781 C88.8853333,17.1300781 88.7146667,16.3166016 88.7146667,15.4375 C88.7146667,11.7501953 91.3146667,10.7644531 92.5973333,10.7644531 L92.5973333,10.7644531 Z" id="path4435"></path>
            <path d="M53.0226667,9.60371094 C47.6213333,9.60371094 44.2746667,13.6505859 44.2746667,17.9462891 C44.2746667,21.6541016 46.9706667,26.0564453 52.4333333,26.0564453 C57.688,26.0564453 60.912,22.0013672 60.912,17.6304687 C60.912,13.5589844 57.7613333,9.60507812 53.0226667,9.60507812 L53.0226667,9.60371094 Z M52.1266667,10.7835938 C55.9346667,10.7835938 57.6306667,15.8708984 57.6306667,19.4994141 C57.6306667,24.8957031 53.6826667,25.0023437 53.2106667,25.0023437 C51.404,25.0023437 50.1413333,23.8826172 49.196,22.4142578 C48.364,21.0607422 47.5506667,18.5464844 47.5506667,16.0896484 C47.5506667,13.6423828 48.332,12.4474609 49.5613333,11.5683594 C50.5666667,10.909375 51.508,10.7835938 52.1253333,10.7835938 L52.1266667,10.7835938 Z" id="path4439"></path>
        </g>
    </g>
</svg>