<?xml version="1.0" encoding="UTF-8"?>
<svg width="81px" height="33px" viewBox="0 0 81 33" version="1.1" xmlns="http://www.w3.org/2000/svg" xmlns:xlink="http://www.w3.org/1999/xlink">
    <!-- Generator: Sketch 47.1 (45422) - http://www.bohemiancoding.com/sketch -->
    <title>logo-stripe</title>
    <desc>Created with Sketch.</desc>
    <defs></defs>
    <g id="Page-1" stroke="none" stroke-width="1" fill="none" fill-rule="evenodd">
        <g id="logo-stripe" fill="#FFFFFF" fill-rule="nonzero">
            <path d="M8.391111,14.830992 C6.6608,14.197392 5.712533,13.704592 5.712533,12.930192 C5.712533,12.273184 6.257778,11.8976 7.229689,11.8976 C9.007467,11.8976 10.832533,12.578192 12.088889,13.188384 L12.8,8.846992 C11.804444,8.3776 9.765867,7.6032 6.945244,7.6032 C4.954133,7.6032 3.294756,8.119584 2.109689,9.0816 C0.876978,10.090784 0.236978,11.5456 0.236978,13.3056 C0.236978,16.497184 2.204444,17.858192 5.404444,19.008 C7.466667,19.735584 8.154133,20.251792 8.154133,21.0496 C8.154133,21.824 7.490311,22.269984 6.281422,22.269984 C4.788089,22.269984 2.323022,21.5424 0.711111,20.603792 L0,24.992 C1.374756,25.7664 3.934756,26.564384 6.589689,26.564384 C8.6992,26.564384 10.453333,26.071584 11.638578,25.1328 C12.965867,24.100384 13.653333,22.574992 13.653333,20.603792 C13.653333,17.341984 11.638578,15.9808 8.391111,14.830992 L8.391111,14.830992 Z M25.229689,12.273184 L25.9408,7.9552 L22.186667,7.9552 L22.186667,2.713568 L17.1392,3.53584 L16.410311,7.9552 L14.635022,8.24032 L13.970489,12.273184 L16.403022,12.273184 L16.403022,20.744592 C16.403022,22.9504 16.971911,24.475792 18.133333,25.4144 C19.105244,26.1888 20.503644,26.564384 22.471111,26.564384 C23.988089,26.564384 24.912533,26.306192 25.552533,26.141984 L25.552533,21.565984 C25.196978,21.659792 24.391111,21.824 23.845867,21.824 C22.684444,21.824 22.186667,21.237392 22.186667,19.899792 L22.186667,12.273184 L25.229689,12.273184 Z M36.503644,7.703168 C34.844444,7.703168 33.516978,8.565392 32.995556,10.114192 L32.64,7.9552 L27.496356,7.9552 L27.496356,26.212384 L33.374756,26.212384 L33.374756,14.3616 C34.109689,13.469984 35.152533,13.147376 36.574756,13.147376 C36.883022,13.147376 37.214756,13.147376 37.617778,13.217776 L37.617778,7.843968 C37.214756,7.749984 36.8592,7.703168 36.503644,7.703168 L36.503644,7.703168 Z M42.003022,6.148384 C43.709689,6.148384 45.084444,4.763792 45.084444,3.074192 C45.084444,1.361184 43.709689,0 42.003022,0 C40.272533,0 38.897778,1.361184 38.897778,3.074192 C38.897778,4.763792 40.272533,6.148384 42.003022,6.148384 L42.003022,6.148384 Z M39.04,7.9552 L44.942222,7.9552 L44.942222,26.212208 L39.04,26.212208 L39.04,7.9552 Z M61.668089,9.597984 C60.625067,8.260384 59.1792,7.6032 57.330311,7.6032 C55.623644,7.6032 54.130311,8.3072 52.731733,9.7856 L52.423644,7.9552 L47.256178,7.9552 L47.256178,32.970784 L53.134756,32.008592 L53.134756,26.141984 C54.035378,26.423584 54.959822,26.564384 55.789511,26.564384 C57.2592,26.564384 59.392533,26.1888 61.051733,24.405392 C62.639822,22.692384 63.445867,20.040592 63.445867,16.544 C63.445867,13.4464 62.853156,11.099792 61.668089,9.597984 L61.668089,9.597984 Z M56.785067,20.861984 C56.310933,21.7536 55.576178,22.222992 54.722844,22.222992 C54.130311,22.222992 53.608711,22.1056 53.134756,21.870992 L53.134756,13.188384 C54.130311,12.155792 55.030933,12.0384 55.362844,12.0384 C56.856178,12.0384 57.590933,13.634192 57.590933,16.7552 C57.590933,18.538784 57.330311,19.9232 56.785067,20.861984 L56.785067,20.861984 Z M80.2992,16.919584 C80.2992,14.0096 79.6592,11.709984 78.402844,10.090784 C77.122844,8.448 75.202844,7.6032 72.761422,7.6032 C67.759822,7.6032 64.654756,11.264 64.654756,17.130784 C64.654756,20.416 65.484267,22.88 67.119822,24.452384 C68.589511,25.860384 70.6992,26.564384 73.425067,26.564384 C75.9376,26.564384 78.260622,25.9776 79.730311,25.015584 L79.090311,21.026192 C77.644267,21.800592 75.961422,22.222992 74.065067,22.222992 C72.927289,22.222992 72.145067,21.988384 71.576178,21.495584 C70.959822,20.9792 70.604267,20.1344 70.485867,18.9376 L80.228089,18.9376 C80.251733,18.656 80.2992,17.341984 80.2992,16.919584 L80.2992,16.919584 Z M70.4384,15.370784 C70.604267,12.765984 71.315378,11.5456 72.666489,11.5456 C73.993956,11.5456 74.681422,12.789392 74.776178,15.370784 L70.4384,15.370784 Z"></path>
        </g>
    </g>
</svg>