<?xml version="1.0" encoding="UTF-8"?>
<svg width="36px" height="44px" viewBox="0 0 36 44" version="1.1" xmlns="http://www.w3.org/2000/svg" xmlns:xlink="http://www.w3.org/1999/xlink">
    <!-- Generator: Sketch 47.1 (45422) - http://www.bohemiancoding.com/sketch -->
    <title>logo-apple</title>
    <desc>Created with Sketch.</desc>
    <defs></defs>
    <g id="Page-1" stroke="none" stroke-width="1" fill="none" fill-rule="evenodd">
        <g id="logo-apple" fill-rule="nonzero" fill="#FFFFFF">
            <path d="M30.0668178,23.3772786 C30.1289494,30.0362857 35.9364757,32.2522357 36.0008178,32.2805214 C35.9517126,32.4368 35.0728705,35.4384643 32.9411336,38.5389714 C31.0983441,41.2195143 29.1857652,43.8902357 26.1728968,43.94555 C23.2124494,43.9998429 22.260502,42.1983571 18.8758705,42.1983571 C15.4922652,42.1983571 14.4346073,43.8902357 11.6322126,43.9998429 C8.72402835,44.1093714 6.50947572,41.1011857 4.65137046,38.4304643 C0.85455467,32.9673929 -2.04699796,22.9931429 1.84905467,16.2603571 C3.78452835,12.9168286 7.24337046,10.7995643 10.9976336,10.7452714 C13.8533968,10.6910571 16.5488968,12.6573857 18.2946599,12.6573857 C20.0393178,12.6573857 23.3149231,10.2927 26.7584494,10.6399857 C28.2000284,10.6997 32.2465547,11.2195286 34.8449494,15.0047857 C34.635581,15.1339571 30.0166073,17.8101 30.0668178,23.3772786 M24.503002,7.0257 C26.0469757,5.16567857 27.0861599,2.57635714 26.8026599,0 C24.5771336,0.0890214286 21.8859757,1.47596429 20.2896599,3.33496429 C18.8590547,4.98119286 17.6061599,7.61608571 17.9442126,10.14145 C20.4248178,10.3324571 22.9589494,8.8869 24.503002,7.0257" id="Shape"></path>
        </g>
    </g>
</svg>