<?xml version="1.0" encoding="UTF-8"?>
<svg width="12px" height="9px" viewBox="0 0 12 9" version="1.1" xmlns="http://www.w3.org/2000/svg" xmlns:xlink="http://www.w3.org/1999/xlink">
    <!-- Generator: Sketch 47.1 (45422) - http://www.bohemiancoding.com/sketch -->
    <title>quote-end</title>
    <desc>Created with Sketch.</desc>
    <defs></defs>
    <g id="Page-1" stroke="none" stroke-width="1" fill="none" fill-rule="evenodd">
        <path d="M11.7658625,0.694736841 C11.7658625,0.694736841 9.80980165,2.46059742 10.2001842,4.04466563 C11.2500939,4.40738635 11.9999852,5.34195353 12,6.44082498 C12,7.85376953 10.7620218,9 9.23552002,9 C7.89015202,9 6.7701643,8.10938839 6.52219994,6.93115225 C6.45490849,6.57908964 6.37839905,6.08022762 6.59870938,5.51522051 C7.37394374,3.5227596 8.68658766,1.91308676 10.3619602,0.617496446 C10.6108464,0.424608815 11.3409124,0 11.3409124,0 L11.7658625,0.694736841 Z M5.3132585,0.694736841 C5.3132585,0.694736841 3.35719765,2.46059742 3.74758019,4.04466563 C4.79748989,4.40738635 5.54738118,5.34195353 5.54739601,6.44082498 C5.54739601,7.85376953 4.30941779,9 2.78291603,9 C1.43754803,9 0.317560304,8.10938839 0.0695959442,6.93115225 C0.00230449665,6.57908964 -0.0742049409,6.08022762 0.146105389,5.51522051 C0.921339742,3.5227596 2.23398367,1.91308676 3.9093562,0.617496446 C4.15824239,0.424608815 4.88830844,0 4.88830844,0 L5.3132585,0.694736841 Z" id="quote-end" fill="#68B4F9" transform="translate(6.000000, 4.500000) scale(-1, -1) translate(-6.000000, -4.500000) "></path>
    </g>
</svg>