<?xml version="1.0" encoding="UTF-8"?>
<svg width="23px" height="18px" viewBox="0 0 23 18" version="1.1" xmlns="http://www.w3.org/2000/svg" xmlns:xlink="http://www.w3.org/1999/xlink">
    <!-- Generator: Sketch 47.1 (45422) - http://www.bohemiancoding.com/sketch -->
    <title>quote-begin</title>
    <desc>Created with Sketch.</desc>
    <defs></defs>
    <g id="Page-1" stroke="none" stroke-width="1" fill="none" fill-rule="evenodd">
        <path d="M10.1837455,1.38947368 C10.1837455,1.38947368 6.43462883,4.92119483 7.18286204,8.08933125 C9.19518896,8.81477271 10.6324806,10.6839071 10.632509,12.88165 C10.632509,15.7075391 8.25971743,18 5.33392239,18 C2.75530039,18 0.608657249,16.2187768 0.133392226,13.8623045 C0.00441695192,13.1581793 -0.142226137,12.1604552 0.280035328,11.030441 C1.76590117,7.04551919 4.28180203,3.82617352 7.49293272,1.23499289 C7.96996458,0.84921763 9.36925784,0 9.36925784,0 L10.1837455,1.38947368 Z M22.5512364,1.38947368 C22.5512364,1.38947368 18.8021198,4.92119483 19.550353,8.08933125 C21.5626799,8.81477271 22.9999716,10.6839071 23,12.88165 C23,15.7075391 20.6272084,18 17.7014134,18 C15.1227914,18 12.9761482,16.2187768 12.5008832,13.8623045 C12.3719079,13.1581793 12.2252649,12.1604552 12.6475263,11.030441 C14.1333922,7.04551919 16.649293,3.82617352 19.8604237,1.23499289 C20.3374556,0.84921763 21.7367488,0 21.7367488,0 L22.5512364,1.38947368 Z" id="quote-begin" fill="#68B5F9"></path>
    </g>
</svg>